#Comment line ignore any data following # character 
#Hierarchical Translation and Rotation (.htr) file 
[Header]	
#Header keywords are followed by a single value 
FileType HTR		#Single word string
DataType HTRS		#Translation followed by rotation and scale data
FileVersion 1		#integer
NumSegments 64		#integer
NumFrames 3		#integer
DataFrameRate 30		#integer, data frame rate in this file
EulerRotationOrder ZYX
CalibrationUnits mm
RotationUnits Degrees
GlobalAxisofGravity Y
BoneLengthAxis Y
ScaleFactor 1.00
[SegmentNames&Hierarchy]
#CHILD	PARENT
Pinger_Root GLOBAL
Pelvis Pinger_Root
L_Hip Pelvis
R_Hip Pelvis
Rear_Leg01 Pelvis
Spine1 Pelvis
L_Leg01 L_Hip
L_Leg02 L_Leg01
L_Leg03 L_Leg02
L_Foot L_Leg03
L_Toe1_01 L_Foot
L_Toe2_01 L_Foot
L_Toe3_01 L_Foot
planeAlignerLeft L_Foot
L_Toe1_02 L_Toe1_01
L_Toe1_03 L_Toe1_02
L_Toe2_02 L_Toe2_01
L_Toe2_03 L_Toe2_02
L_Toe3_02 L_Toe3_01
L_Toe3_03 L_Toe3_02
planeLockWeightLeft planeAlignerLeft
R_Leg01 R_Hip
R_Leg02 R_Leg01
R_Leg03 R_Leg02
R_Foot R_Leg03
planeAlignerRight R_Foot
R_Toe1_01 R_Foot
R_Toe2_01 R_Foot
R_Toe3_01 R_Foot
planeLockWeightRight planeAlignerRight
R_Toe1_02 R_Toe1_01
R_Toe1_03 R_Toe1_02
R_Toe2_02 R_Toe2_01
R_Toe2_03 R_Toe2_02
R_Toe3_02 R_Toe3_01
R_Toe3_03 R_Toe3_02
Rear_Leg02 Rear_Leg01
Rear_Leg03 Rear_Leg02
Rear_Leg04 Rear_Leg03
Rear_Foot Rear_Leg04
planeAlignerCenter Rear_Foot
Rear_Toe1_01 Rear_Foot
Rear_Toe2_01 Rear_Foot
Rear_Toe3_01 Rear_Foot
planeLockWeightCenter planeAlignerCenter
Rear_Toe1_02 Rear_Toe1_01
Rear_Toe1_03 Rear_Toe1_02
Rear_Toe2_02 Rear_Toe2_01
Rear_Toe2_03 Rear_Toe2_02
Rear_Toe3_02 Rear_Toe3_01
Rear_Toe3_03 Rear_Toe3_02
Back_Bone Spine1
Head Spine1
Motor_Bone Back_Bone
Ping_Mechanism Back_Bone
BN_LookIK Head
bottomMouth Head
L_Mouth01 Head
L_mouthFront Head
mouthGun Head
R_Mouth01 Head
R_mouthFront Head
TopMouth Head
weapon_bone Head
[BasePosition]
#SegmentName Tx, Ty, Tz, Rx, Ry, Rz, BoneLength
Pinger_Root 0.000000 0.000000 0.000000 -90.000000 0.000000 0.000000 10.000000 
Pelvis 0.000000 0.000000 0.000000 0.000000 0.000000 0.000000 10.000000 
L_Hip 0.000000 0.000000 0.000000 0.000000 0.000000 0.000000 10.000000 
R_Hip 0.000000 0.000000 0.000000 0.000000 0.000000 0.000000 10.000000 
Rear_Leg01 0.000000 0.000000 0.000000 0.000000 0.000000 0.000000 10.000000 
Spine1 0.000000 0.000000 0.000000 0.000000 0.000000 0.000000 10.000000 
L_Leg01 0.000000 0.000000 0.000000 0.000000 0.000000 0.000000 10.000000 
L_Leg02 0.000000 0.000000 0.000000 0.000000 0.000000 0.000000 10.000000 
L_Leg03 0.000000 0.000000 0.000000 0.000000 0.000000 0.000000 10.000000 
L_Foot 0.000000 0.000000 0.000000 0.000000 0.000000 0.000000 10.000000 
L_Toe1_01 0.000000 0.000000 0.000000 0.000000 0.000000 0.000000 10.000000 
L_Toe2_01 0.000000 0.000000 0.000000 0.000000 0.000000 0.000000 10.000000 
L_Toe3_01 0.000000 0.000000 0.000000 0.000000 0.000000 0.000000 10.000000 
planeAlignerLeft 0.000000 0.000000 0.000000 0.000000 0.000000 0.000000 10.000000 
L_Toe1_02 0.000000 0.000000 0.000000 0.000000 0.000000 0.000000 10.000000 
L_Toe1_03 0.000000 0.000000 0.000000 0.000000 0.000000 0.000000 10.000000 
L_Toe2_02 0.000000 0.000000 0.000000 0.000000 0.000000 0.000000 10.000000 
L_Toe2_03 0.000000 0.000000 0.000000 0.000000 0.000000 0.000000 10.000000 
L_Toe3_02 0.000000 0.000000 0.000000 0.000000 0.000000 0.000000 10.000000 
L_Toe3_03 0.000000 0.000000 0.000000 0.000000 0.000000 0.000000 10.000000 
planeLockWeightLeft 0.000000 0.000000 0.000000 0.000000 0.000000 0.000000 10.000000 
R_Leg01 0.000000 0.000000 0.000000 0.000000 0.000000 0.000000 10.000000 
R_Leg02 0.000000 0.000000 0.000000 0.000000 0.000000 0.000000 10.000000 
R_Leg03 0.000000 0.000000 0.000000 0.000000 0.000000 0.000000 10.000000 
R_Foot 0.000000 0.000000 0.000000 0.000000 0.000000 0.000000 10.000000 
planeAlignerRight 0.000000 0.000000 0.000000 0.000000 0.000000 0.000000 10.000000 
R_Toe1_01 0.000000 0.000000 0.000000 0.000000 0.000000 0.000000 10.000000 
R_Toe2_01 0.000000 0.000000 0.000000 0.000000 0.000000 0.000000 10.000000 
R_Toe3_01 0.000000 0.000000 0.000000 0.000000 0.000000 0.000000 10.000000 
planeLockWeightRight 0.000000 0.000000 0.000000 0.000000 0.000000 0.000000 10.000000 
R_Toe1_02 0.000000 0.000000 0.000000 0.000000 0.000000 0.000000 10.000000 
R_Toe1_03 0.000000 0.000000 0.000000 0.000000 0.000000 0.000000 10.000000 
R_Toe2_02 0.000000 0.000000 0.000000 0.000000 0.000000 0.000000 10.000000 
R_Toe2_03 0.000000 0.000000 0.000000 0.000000 0.000000 0.000000 10.000000 
R_Toe3_02 0.000000 0.000000 0.000000 0.000000 0.000000 0.000000 10.000000 
R_Toe3_03 0.000000 0.000000 0.000000 0.000000 0.000000 0.000000 10.000000 
Rear_Leg02 0.000000 0.000000 0.000000 0.000000 0.000000 0.000000 10.000000 
Rear_Leg03 0.000000 0.000000 0.000000 0.000000 0.000000 0.000000 10.000000 
Rear_Leg04 0.000000 0.000000 0.000000 0.000000 0.000000 0.000000 10.000000 
Rear_Foot 0.000000 0.000000 0.000000 0.000000 0.000000 0.000000 10.000000 
planeAlignerCenter 0.000000 0.000000 0.000000 0.000000 0.000000 0.000000 10.000000 
Rear_Toe1_01 0.000000 0.000000 0.000000 0.000000 0.000000 0.000000 10.000000 
Rear_Toe2_01 0.000000 0.000000 0.000000 0.000000 0.000000 0.000000 10.000000 
Rear_Toe3_01 0.000000 0.000000 0.000000 0.000000 0.000000 0.000000 10.000000 
planeLockWeightCenter 0.000000 0.000000 0.000000 0.000000 0.000000 0.000000 10.000000 
Rear_Toe1_02 0.000000 0.000000 0.000000 0.000000 0.000000 0.000000 10.000000 
Rear_Toe1_03 0.000000 0.000000 0.000000 0.000000 0.000000 0.000000 10.000000 
Rear_Toe2_02 0.000000 0.000000 0.000000 0.000000 0.000000 0.000000 10.000000 
Rear_Toe2_03 0.000000 0.000000 0.000000 0.000000 0.000000 0.000000 10.000000 
Rear_Toe3_02 0.000000 0.000000 0.000000 0.000000 0.000000 0.000000 10.000000 
Rear_Toe3_03 0.000000 0.000000 0.000000 0.000000 0.000000 0.000000 10.000000 
Back_Bone 0.000000 0.000000 0.000000 0.000000 0.000000 0.000000 10.000000 
Head 0.000000 0.000000 0.000000 0.000000 0.000000 0.000000 10.000000 
Motor_Bone 0.000000 0.000000 0.000000 0.000000 0.000000 0.000000 10.000000 
Ping_Mechanism 0.000000 0.000000 0.000000 0.000000 0.000000 0.000000 10.000000 
BN_LookIK 0.000000 0.000000 0.000000 0.000000 0.000000 0.000000 10.000000 
bottomMouth 0.000000 0.000000 0.000000 0.000000 0.000000 0.000000 10.000000 
L_Mouth01 0.000000 0.000000 0.000000 0.000000 0.000000 0.000000 10.000000 
L_mouthFront 0.000000 0.000000 0.000000 0.000000 0.000000 0.000000 10.000000 
mouthGun 0.000000 0.000000 0.000000 0.000000 0.000000 0.000000 10.000000 
R_Mouth01 0.000000 0.000000 0.000000 0.000000 0.000000 0.000000 10.000000 
R_mouthFront 0.000000 0.000000 0.000000 0.000000 0.000000 0.000000 10.000000 
TopMouth 0.000000 0.000000 0.000000 0.000000 0.000000 0.000000 10.000000 
weapon_bone 0.000000 0.000000 0.000000 0.000000 0.000000 0.000000 10.000000 
#Beginning of Data. Separated by tabs
#Fr	Tx	Ty	Tz	Rx	Ry	Rz	SF
[Pinger_Root]
32 0.000000 0.000000 0.000000 -0.000075 -0.000000 -0.000020 0.000000
33 0.000000 0.000000 0.000000 -0.000075 -0.000000 -0.000020 0.000000
34 0.000000 0.000000 0.000000 -0.000075 -0.000000 -0.000020 0.000000
[Pelvis]
32 -217.054840 1933.931641 3474.192627 -47.997307 -87.210976 34.930252 3982.112305
33 -190.277420 1890.125244 3497.542236 -66.210030 -86.462273 54.038181 3980.148193
34 -160.098907 1840.137573 3525.919189 -81.233398 -85.568054 70.271805 3980.432617
[L_Hip]
32 5.766392 125.831482 872.656799 169.844513 -44.209827 115.768295 881.701050
33 5.766392 125.831482 872.656799 163.657806 -45.206837 119.963448 881.701050
34 5.766392 125.831482 872.656799 160.158737 -45.484882 122.312157 881.701050
[R_Hip]
32 5.765438 125.836372 -872.654907 -97.697380 63.146221 -23.151073 881.699829
33 5.765438 125.836372 -872.654907 -97.697380 63.146221 -23.151073 881.699829
34 5.765438 125.836372 -872.654907 -97.697380 63.146221 -23.151073 881.699829
[Rear_Leg01]
32 -192.298416 -925.602966 -0.001907 175.698578 18.259899 -128.657196 945.367432
33 -192.298416 -925.602966 -0.001907 175.236450 16.732956 -130.457932 945.367432
34 -192.298416 -925.602966 -0.001907 174.661957 14.633049 -132.312469 945.367432
[Spine1]
32 290.604584 5.007505 0.000477 4.700999 -12.739831 37.362835 290.647736
33 290.604584 5.007505 0.000477 4.149359 -11.827964 36.261948 290.647736
34 290.604584 5.007505 0.000477 3.470357 -10.411365 35.199200 290.647736
[L_Leg01]
32 761.932007 -0.002384 -0.069261 52.170219 2.813686 -28.211351 761.932068
33 761.932007 -0.002384 -0.069261 55.762638 -1.800851 -20.825672 761.932068
34 761.932007 -0.002384 -0.069261 57.752113 -7.227738 -14.539446 761.932068
[L_Leg02]
32 1441.140503 -0.000954 -0.000715 6.952496 2.557762 -128.660309 1441.140503
33 1441.140503 -0.000954 -0.000715 6.846082 2.320222 -132.606964 1441.140503
34 1441.140503 -0.000954 -0.000715 6.473628 1.825778 -135.864243 1441.140503
[L_Leg03]
32 1686.963989 -0.000715 -0.000954 -0.117667 0.072575 141.717743 1686.963989
33 1686.963989 -0.000715 -0.000954 -0.112160 0.068251 140.411606 1686.963989
34 1686.963989 -0.000715 -0.000954 -0.100815 0.060143 137.947250 1686.963989
[L_Foot]
32 3041.570068 -30.715107 11.297464 -22.736094 39.971428 42.028473 3041.746094
33 3041.570068 -30.715107 11.297464 -23.559195 39.289948 41.767521 3041.746094
34 3041.570068 -30.715107 11.297464 -24.370428 38.605648 41.521626 3041.746094
[L_Toe1_01]
32 -188.216690 -224.732346 -21.137953 94.190331 -7.505499 179.911560 293.899567
33 -188.216690 -224.732346 -21.137953 94.190437 -7.507093 179.911285 293.899567
34 -188.216690 -224.732346 -21.137953 94.190567 -7.508688 179.911026 293.899567
[L_Toe2_01]
32 200.746536 -219.926590 148.838394 -98.193222 -36.571735 -34.803730 332.896027
33 200.746536 -219.926590 148.838394 -98.193222 -36.571735 -34.803730 332.896027
34 200.746536 -219.926590 148.838394 -98.193222 -36.571735 -34.803730 332.896027
[L_Toe3_01]
32 188.832520 -219.859131 -191.078659 -96.679802 25.038572 -61.562389 347.140900
33 188.832520 -219.859131 -191.078659 -96.679802 25.038572 -61.562389 347.140900
34 188.832520 -219.859131 -191.078659 -96.679802 25.038572 -61.562389 347.140900
[planeAlignerLeft]
32 0.812531 -811.448792 -0.314951 0.000000 -90.000000 -90.001900 811.449280
33 0.812531 -811.448792 -0.314951 0.000000 -90.000000 -90.001900 811.449280
34 0.812531 -811.448792 -0.314951 0.000000 -90.000000 -90.001900 811.449280
[L_Toe1_02]
32 413.761139 0.000477 0.000000 0.001661 0.067807 0.001661 413.761139
33 413.761139 0.000477 0.000000 0.001661 0.067683 0.001661 413.761139
34 413.761139 0.000477 0.000000 0.001661 0.067559 0.001661 413.761139
[L_Toe1_03]
32 464.317322 0.000358 -0.000089 0.001673 -0.448396 -0.003292 464.317322
33 464.317322 0.000358 -0.000089 0.001673 -0.448396 -0.003292 464.317322
34 464.317322 0.000358 -0.000089 0.001673 -0.448396 -0.003292 464.317322
[L_Toe2_02]
32 342.235809 -0.000477 0.000238 0.004684 -81.213631 0.004684 342.235809
33 342.235809 -0.000477 0.000238 0.004684 -81.214096 0.004684 342.235809
34 342.235809 -0.000477 0.000238 0.004684 -81.214592 0.004684 342.235809
[L_Toe2_03]
32 420.210846 -0.000715 0.000000 179.993240 43.061138 -179.999130 420.210846
33 420.210846 -0.000715 0.000000 179.993240 43.061138 -179.999130 420.210846
34 420.210846 -0.000715 0.000000 179.993240 43.061134 -179.999130 420.210846
[L_Toe3_02]
32 329.270111 0.000954 0.000000 0.004676 -84.586296 0.004676 329.270111
33 329.270111 0.000954 0.000000 0.004676 -84.586296 0.004676 329.270111
34 329.270111 0.000954 0.000000 0.004676 -84.586296 0.004676 329.270111
[L_Toe3_03]
32 439.137451 -0.001907 0.000954 179.993500 35.788990 -179.998657 439.137451
33 439.137451 -0.001907 0.000954 179.993500 35.788990 -179.998657 439.137451
34 439.137451 -0.001907 0.000954 179.993500 35.788990 -179.998657 439.137451
[planeLockWeightLeft]
32 -0.000954 0.000238 -0.000305 -0.011826 -0.004376 0.005620 0.001029
33 -0.000954 0.000238 -0.000305 -0.011826 -0.004376 0.005620 0.001029
34 -0.000954 0.000238 -0.000305 -0.011826 -0.004376 0.005620 0.001029
[R_Leg01]
32 761.455627 -0.001907 -0.000358 109.482803 -4.665566 86.842758 761.455688
33 761.455627 -0.001907 -0.000358 110.962868 -4.554791 87.988365 761.455688
34 761.455627 -0.001907 -0.000358 112.741669 -3.829543 89.642319 761.455688
[R_Leg02]
32 1441.140625 0.000000 -0.000238 -1.658117 -0.363497 -108.072685 1441.140625
33 1441.140625 0.000000 -0.000238 -1.599956 -0.323806 -106.329422 1441.140625
34 1441.140625 0.000000 -0.000238 -1.503927 -0.265820 -103.568764 1441.140625
[R_Leg03]
32 1686.963989 0.000954 0.001431 0.096366 -0.056366 136.248886 1686.963989
33 1686.963989 0.000954 0.001431 0.093423 -0.054526 135.675980 1686.963989
34 1686.963989 0.000954 0.001431 0.087393 -0.051097 134.745239 1686.963989
[R_Foot]
32 3041.560059 -30.531288 -11.204481 3.012149 5.685939 48.622284 3041.734131
33 3041.560059 -30.531288 -11.204481 2.360282 5.684042 48.298962 3041.734131
34 3041.560059 -30.531288 -11.204481 1.708413 5.678484 47.975655 3041.734131
[planeAlignerRight]
32 -0.635147 -812.270569 -0.364304 0.000000 -89.960434 -90.005180 812.270874
33 -0.635147 -812.270569 -0.364304 0.000000 -89.960434 -90.005180 812.270874
34 -0.635147 -812.270569 -0.364304 0.000000 -89.960434 -90.005180 812.270874
[R_Toe1_01]
32 -188.383347 -224.864899 21.052242 77.501556 2.584953 -171.438934 294.101532
33 -188.383347 -224.864899 21.052242 77.501541 2.585034 -171.439041 294.101532
34 -188.383347 -224.864899 21.052242 77.501541 2.585116 -171.439148 294.101532
[R_Toe2_01]
32 200.637817 -220.002121 -148.787384 -87.001320 41.728783 -47.414322 332.857574
33 200.637817 -220.002121 -148.787384 -87.001289 41.729176 -47.414154 332.857574
34 200.637817 -220.002121 -148.787384 -87.001274 41.729572 -47.413994 332.857574
[R_Toe3_01]
32 188.606735 -220.092957 191.126343 -74.774231 -14.746103 -63.949142 347.192566
33 188.606735 -220.092957 191.126343 -74.774208 -14.746099 -63.949127 347.192566
34 188.606735 -220.092957 191.126343 -74.774231 -14.746103 -63.949142 347.192566
[planeLockWeightRight]
32 -0.000477 0.000000 0.000000 -0.011823 -0.004379 -0.000027 0.000477
33 -0.000477 0.000000 0.000000 -0.011823 -0.004379 -0.000027 0.000477
34 -0.000477 0.000000 0.000000 -0.011823 -0.004379 -0.000027 0.000477
[R_Toe1_02]
32 413.762085 0.000477 -0.000119 0.001417 -21.796068 0.001417 413.762085
33 413.762085 0.000477 -0.000119 0.001417 -21.795036 0.001417 413.762085
34 413.762085 0.000477 -0.000119 0.001417 -21.793999 0.001417 413.762085
[R_Toe1_03]
32 464.317810 0.000000 0.001088 0.000899 28.909855 -0.003161 464.317810
33 464.317810 0.000000 0.001088 0.000899 28.910040 -0.003161 464.317810
34 464.317810 0.000000 0.001088 0.000899 28.910217 -0.003161 464.317810
[R_Toe2_02]
32 342.234741 -0.000954 0.000238 -0.002334 -78.728256 -0.002334 342.234741
33 342.234741 -0.000954 0.000238 -0.002334 -78.725403 -0.002334 342.234741
34 342.234741 -0.000954 0.000238 -0.002334 -78.722595 -0.002334 342.234741
[R_Toe2_03]
32 420.210846 0.000715 -0.000268 -179.994690 71.300629 -179.998230 420.210846
33 420.210846 0.000715 -0.000268 -179.994690 71.300629 -179.998230 420.210846
34 420.210846 0.000715 -0.000268 -179.994690 71.300629 -179.998230 420.210846
[R_Toe3_02]
32 329.270355 -0.000477 -0.000954 0.001175 -84.053505 0.001175 329.270355
33 329.270355 -0.000477 -0.000954 0.001175 -84.054192 0.001175 329.270355
34 329.270355 -0.000477 -0.000954 0.001175 -84.054825 0.001175 329.270355
[R_Toe3_03]
32 439.137939 0.000238 0.001431 -179.995331 57.501827 -179.988052 439.137939
33 439.137939 0.000238 0.001431 -179.995346 57.501682 -179.988052 439.137939
34 439.137939 0.000238 0.001431 -179.995346 57.501545 -179.988052 439.137939
[Rear_Leg02]
32 1162.777710 -0.029802 0.005960 4.619714 17.619249 -80.701591 1162.777710
33 1162.777710 -0.029802 0.005960 4.122416 17.737848 -82.342422 1162.777710
34 1162.777710 -0.029802 0.005960 3.621630 17.842785 -83.984680 1162.777710
[Rear_Leg03]
32 607.192505 -0.013351 -0.073195 0.006638 -0.001523 54.048359 607.192505
33 607.192505 -0.013351 -0.073195 0.006628 -0.001564 54.771542 607.192505
34 607.192505 -0.013351 -0.073195 0.006618 -0.001606 55.494663 607.192505
[Rear_Leg04]
32 995.874512 -0.020504 -0.011921 -0.035912 -0.016761 39.960018 995.874573
33 995.874512 -0.020504 -0.011921 -0.036081 -0.016390 41.139004 995.874573
34 995.874512 -0.020504 -0.011921 -0.036242 -0.016016 42.317738 995.874573
[Rear_Foot]
32 3096.176270 -0.067472 -0.041425 32.853516 67.361618 -118.004143 3096.176270
33 3096.176270 -0.067472 -0.041425 34.442173 68.010468 -117.379128 3096.176270
34 3096.176270 -0.067472 -0.041425 36.095909 68.652367 -116.686966 3096.176270
[planeAlignerCenter]
32 0.350077 0.966311 -838.790894 0.000009 0.000003 -179.999985 838.791565
33 0.350077 0.966311 -838.790894 0.000009 0.000003 -179.999985 838.791565
34 0.350077 0.966311 -838.790894 0.000009 0.000003 -179.999985 838.791565
[Rear_Toe1_01]
32 0.653352 83.966492 -371.173737 -30.751722 22.813293 86.596436 380.553192
33 0.653352 83.966492 -371.173737 -30.751722 22.812998 86.596313 380.553192
34 0.653352 83.966492 -371.173737 -30.751715 22.812695 86.596184 380.553192
[Rear_Toe2_01]
32 178.200760 -294.826019 -362.060547 -8.136590 -0.232424 -62.257416 499.765686
33 178.200760 -294.826019 -362.060547 -8.136649 -0.232666 -62.257393 499.765686
34 178.200760 -294.826019 -362.060547 -8.136709 -0.232908 -62.257374 499.765686
[Rear_Toe3_01]
32 -153.359680 -308.780914 -362.060852 3.734321 13.517389 -102.730774 499.952881
33 -153.359680 -308.780914 -362.060852 3.734344 13.517139 -102.730804 499.952881
34 -153.359680 -308.780914 -362.060852 3.734369 13.516891 -102.730843 499.952881
[planeLockWeightCenter]
32 -0.000062 0.000238 0.000000 -0.011814 -0.004373 -0.000015 0.000246
33 -0.000062 0.000238 0.000000 -0.011814 -0.004373 -0.000015 0.000246
34 -0.000062 0.000238 0.000000 -0.011814 -0.004373 -0.000015 0.000246
[Rear_Toe1_02]
32 379.707825 0.194073 0.000477 -0.006719 -30.026361 -0.006719 379.707855
33 379.707825 0.194073 0.000477 -0.006719 -30.026175 -0.006719 379.707855
34 379.707825 0.194073 0.000477 -0.006719 -30.025990 -0.006719 379.707855
[Rear_Toe1_03]
32 500.129700 0.165701 0.000119 -179.994797 70.676956 -179.998352 500.129761
33 500.129700 0.165701 0.000119 -179.994797 70.676727 -179.998352 500.129761
34 500.129700 0.165701 0.000119 -179.994797 70.676491 -179.998352 500.129761
[Rear_Toe2_02]
32 340.494507 0.000238 -0.000954 0.001661 0.064247 0.001661 340.494507
33 340.494507 0.000238 -0.000954 0.001661 0.064418 0.001661 340.494507
34 340.494507 0.000238 -0.000954 0.001661 0.064588 0.001661 340.494507
[Rear_Toe2_03]
32 433.103577 0.000000 0.000238 -0.003297 -0.804494 0.001683 433.103546
33 433.103577 0.000000 0.000238 -0.003297 -0.804494 0.001683 433.103546
34 433.103577 0.000000 0.000238 -0.003297 -0.804494 0.001683 433.103546
[Rear_Toe3_02]
32 340.494141 -0.000358 -0.000477 -0.002600 -36.670113 -0.002600 340.494171
33 340.494141 -0.000358 -0.000477 -0.002600 -36.670113 -0.002600 340.494171
34 340.494141 -0.000358 -0.000477 -0.002600 -36.670113 -0.002600 340.494171
[Rear_Toe3_03]
32 433.103577 0.001431 -0.000238 0.006396 30.730234 -0.001649 433.103546
33 433.103577 0.001431 -0.000238 0.006396 30.730234 -0.001649 433.103546
34 433.103577 0.001431 -0.000238 0.006396 30.730234 -0.001649 433.103546
[Back_Bone]
32 1312.175781 -701.934692 0.000954 13.651415 -25.833796 -88.288971 1488.125488
33 1312.175781 -701.934692 0.000954 13.219927 -25.836357 -87.965286 1488.125488
34 1312.175781 -701.934692 0.000954 12.973305 -25.721304 -88.268532 1488.125488
[Head]
32 1406.159424 809.709290 0.001431 -0.851836 -1.337734 42.799042 1622.625488
33 1406.159424 809.709290 0.001431 -0.851836 -1.337734 42.799042 1622.625488
34 1406.159424 809.709290 0.001431 -0.851836 -1.337734 42.799042 1622.625488
[Motor_Bone]
32 1158.364380 -417.834747 0.000477 -5.761951 -21.651030 -115.433746 1231.419434
33 1158.364380 -417.834747 0.000477 -5.761951 -21.651030 -115.433746 1231.419434
34 1158.364380 -417.834747 0.000477 -5.761951 -21.651030 -115.433746 1231.419434
[Ping_Mechanism]
32 1229.962280 -415.261597 8.854712 0.000103 -0.000053 82.120995 1298.201782
33 1231.779053 -434.530060 6.541168 0.000103 -0.000053 82.120995 1306.192505
34 1234.022095 -445.839966 2.449556 0.000103 -0.000053 82.120995 1312.093750
[BN_LookIK]
32 193.241119 1380.371704 -0.002861 0.000000 89.965736 -31.038179 1393.832153
33 193.241119 1380.371704 -0.002861 0.000000 89.965736 -31.038179 1393.832153
34 193.241119 1380.371704 -0.002861 0.000000 89.965736 -31.038179 1393.832153
[bottomMouth]
32 -435.092926 615.759399 -0.000954 -0.000022 0.000016 73.527184 753.966492
33 -435.092926 615.759399 -0.000954 -0.000022 0.000016 73.527184 753.966492
34 -435.092926 615.759399 -0.000954 -0.000022 0.000016 73.527184 753.966492
[L_Mouth01]
32 554.440979 7.658243 838.222046 150.204178 23.759130 109.605339 1005.027161
33 554.440979 7.658243 838.222046 150.204178 23.759130 109.605339 1005.027161
34 554.440979 7.658243 838.222046 150.204178 23.759130 109.605339 1005.027161
[L_mouthFront]
32 551.629089 934.514771 339.150421 0.000081 2.804060 79.119301 1136.941284
33 551.629089 934.514771 339.150421 0.000081 2.804060 79.119301 1136.941284
34 551.629089 934.514771 339.150421 0.000081 2.804060 79.119301 1136.941284
[mouthGun]
32 55.332661 1627.420898 0.000000 0.000023 0.000009 -11.038128 1628.361328
33 55.332661 1627.420898 0.000000 0.000023 0.000009 -11.038128 1628.361328
34 55.332661 1627.420898 0.000000 0.000023 0.000009 -11.038128 1628.361328
[R_Mouth01]
32 554.442383 7.659197 -838.223938 29.795891 -23.759109 109.605331 1005.029541
33 554.442383 7.659197 -838.223938 29.795891 -23.759109 109.605331 1005.029541
34 554.442383 7.659197 -838.223938 29.795891 -23.759109 109.605331 1005.029541
[R_mouthFront]
32 551.629089 934.514282 -339.151367 0.000029 -2.803930 79.119133 1136.941162
33 551.629089 934.514282 -339.151367 0.000029 -2.803930 79.119133 1136.941162
34 551.629089 934.514282 -339.151367 0.000029 -2.803930 79.119133 1136.941162
[TopMouth]
32 461.269867 -56.106091 -0.008583 -0.000059 -0.000268 92.025169 464.669525
33 461.269867 -56.106091 -0.008583 -0.000059 -0.000268 92.025169 464.669525
34 461.269867 -56.106091 -0.008583 -0.000059 -0.000268 92.025169 464.669525
[weapon_bone]
32 -987.239868 1448.372803 0.001431 0.000000 89.965736 -31.038221 1752.833740
33 -987.239868 1448.372803 0.001431 0.000000 89.965736 -31.038221 1752.833740
34 -987.239868 1448.372803 0.001431 0.000000 89.965736 -31.038221 1752.833740
